<?xml version="1.0" encoding="iso-8859-1"?>
<!-- Generator: Adobe Illustrator 19.0.0, SVG Export Plug-In . SVG Version: 6.00 Build 0)  -->
<svg version="1.1" id="Capa_1" xmlns="http://www.w3.org/2000/svg" xmlns:xlink="http://www.w3.org/1999/xlink" x="0px" y="0px"
	 viewBox="0 0 59.982 59.982" style="enable-background:new 0 0 59.982 59.982;" xml:space="preserve">
<path d="M51.991,7.982c-14.628,0-21.169-7.565-21.231-7.641c-0.381-0.455-1.156-0.455-1.537,0
	c-0.063,0.077-6.537,7.641-21.231,7.641c-0.553,0-1,0.447-1,1v19.085c0,10.433,4.69,20.348,12.546,26.521
	c3.167,2.489,6.589,4.29,10.17,5.353c0.093,0.027,0.188,0.041,0.284,0.041s0.191-0.014,0.284-0.041
	c3.581-1.063,7.003-2.863,10.17-5.353c7.855-6.174,12.546-16.089,12.546-26.521V8.982C52.991,8.429,52.544,7.982,51.991,7.982z
	 M9.991,34.982c-0.552,0-1-0.448-1-1c0-0.552,0.448-1,1-1s1,0.448,1,1C10.991,34.534,10.543,34.982,9.991,34.982z M9.991,28.982
	c-0.552,0-1-0.448-1-1c0-0.552,0.448-1,1-1s1,0.448,1,1C10.991,28.534,10.543,28.982,9.991,28.982z M9.991,22.982
	c-0.552,0-1-0.448-1-1c0-0.552,0.448-1,1-1s1,0.448,1,1C10.991,22.534,10.543,22.982,9.991,22.982z M9.991,16.982
	c-0.552,0-1-0.448-1-1c0-0.552,0.448-1,1-1s1,0.448,1,1C10.991,16.534,10.543,16.982,9.991,16.982z M9.991,10.982
	c-0.552,0-1-0.448-1-1c0-0.552,0.448-1,1-1s1,0.448,1,1C10.991,10.534,10.543,10.982,9.991,10.982z M12.991,43.982
	c-0.552,0-1-0.448-1-1c0-0.552,0.448-1,1-1s1,0.448,1,1C13.991,43.534,13.543,43.982,12.991,43.982z M12.991,37.982
	c-0.552,0-1-0.448-1-1c0-0.552,0.448-1,1-1s1,0.448,1,1C13.991,37.534,13.543,37.982,12.991,37.982z M12.991,31.982
	c-0.552,0-1-0.448-1-1c0-0.552,0.448-1,1-1s1,0.448,1,1C13.991,31.534,13.543,31.982,12.991,31.982z M12.991,25.982
	c-0.552,0-1-0.448-1-1c0-0.552,0.448-1,1-1s1,0.448,1,1C13.991,25.534,13.543,25.982,12.991,25.982z M12.991,19.982
	c-0.552,0-1-0.448-1-1c0-0.552,0.448-1,1-1s1,0.448,1,1C13.991,19.534,13.543,19.982,12.991,19.982z M12.991,13.982
	c-0.552,0-1-0.448-1-1c0-0.552,0.448-1,1-1s1,0.448,1,1C13.991,13.534,13.543,13.982,12.991,13.982z M15.991,46.982
	c-0.552,0-1-0.448-1-1c0-0.552,0.448-1,1-1s1,0.448,1,1C16.991,46.534,16.543,46.982,15.991,46.982z M15.991,40.982
	c-0.552,0-1-0.448-1-1c0-0.552,0.448-1,1-1s1,0.448,1,1C16.991,40.534,16.543,40.982,15.991,40.982z M15.991,34.982
	c-0.552,0-1-0.448-1-1c0-0.552,0.448-1,1-1s1,0.448,1,1C16.991,34.534,16.543,34.982,15.991,34.982z M15.991,28.982
	c-0.552,0-1-0.448-1-1c0-0.552,0.448-1,1-1s1,0.448,1,1C16.991,28.534,16.543,28.982,15.991,28.982z M15.991,22.982
	c-0.552,0-1-0.448-1-1c0-0.552,0.448-1,1-1s1,0.448,1,1C16.991,22.534,16.543,22.982,15.991,22.982z M15.991,16.982
	c-0.552,0-1-0.448-1-1c0-0.552,0.448-1,1-1s1,0.448,1,1C16.991,16.534,16.543,16.982,15.991,16.982z M15.991,10.982
	c-0.552,0-1-0.448-1-1c0-0.552,0.448-1,1-1s1,0.448,1,1C16.991,10.534,16.543,10.982,15.991,10.982z M18.991,49.982
	c-0.552,0-1-0.448-1-1c0-0.552,0.448-1,1-1s1,0.448,1,1C19.991,49.534,19.543,49.982,18.991,49.982z M18.991,43.982
	c-0.552,0-1-0.448-1-1c0-0.552,0.448-1,1-1s1,0.448,1,1C19.991,43.534,19.543,43.982,18.991,43.982z M18.991,37.982
	c-0.552,0-1-0.448-1-1c0-0.552,0.448-1,1-1s1,0.448,1,1C19.991,37.534,19.543,37.982,18.991,37.982z M18.991,31.982
	c-0.552,0-1-0.448-1-1c0-0.552,0.448-1,1-1s1,0.448,1,1C19.991,31.534,19.543,31.982,18.991,31.982z M18.991,25.982
	c-0.552,0-1-0.448-1-1c0-0.552,0.448-1,1-1s1,0.448,1,1C19.991,25.534,19.543,25.982,18.991,25.982z M18.991,19.982
	c-0.552,0-1-0.448-1-1c0-0.552,0.448-1,1-1s1,0.448,1,1C19.991,19.534,19.543,19.982,18.991,19.982z M18.991,13.982
	c-0.552,0-1-0.448-1-1c0-0.552,0.448-1,1-1s1,0.448,1,1C19.991,13.534,19.543,13.982,18.991,13.982z M21.991,52.982
	c-0.552,0-1-0.448-1-1c0-0.552,0.448-1,1-1s1,0.448,1,1C22.991,52.534,22.543,52.982,21.991,52.982z M21.991,46.982
	c-0.552,0-1-0.448-1-1c0-0.552,0.448-1,1-1s1,0.448,1,1C22.991,46.534,22.543,46.982,21.991,46.982z M21.991,40.982
	c-0.552,0-1-0.448-1-1c0-0.552,0.448-1,1-1s1,0.448,1,1C22.991,40.534,22.543,40.982,21.991,40.982z M21.991,34.982
	c-0.552,0-1-0.448-1-1c0-0.552,0.448-1,1-1s1,0.448,1,1C22.991,34.534,22.543,34.982,21.991,34.982z M21.991,28.982
	c-0.552,0-1-0.448-1-1c0-0.552,0.448-1,1-1s1,0.448,1,1C22.991,28.534,22.543,28.982,21.991,28.982z M21.991,22.982
	c-0.552,0-1-0.448-1-1c0-0.552,0.448-1,1-1s1,0.448,1,1C22.991,22.534,22.543,22.982,21.991,22.982z M21.991,16.982
	c-0.552,0-1-0.448-1-1c0-0.552,0.448-1,1-1s1,0.448,1,1C22.991,16.534,22.543,16.982,21.991,16.982z M21.991,10.982
	c-0.552,0-1-0.448-1-1c0-0.552,0.448-1,1-1s1,0.448,1,1C22.991,10.534,22.543,10.982,21.991,10.982z M24.991,55.982
	c-0.552,0-1-0.448-1-1c0-0.552,0.448-1,1-1s1,0.448,1,1C25.991,55.534,25.543,55.982,24.991,55.982z M24.991,49.982
	c-0.552,0-1-0.448-1-1c0-0.552,0.448-1,1-1s1,0.448,1,1C25.991,49.534,25.543,49.982,24.991,49.982z M24.991,43.982
	c-0.552,0-1-0.448-1-1c0-0.552,0.448-1,1-1s1,0.448,1,1C25.991,43.534,25.543,43.982,24.991,43.982z M24.991,37.982
	c-0.552,0-1-0.448-1-1c0-0.552,0.448-1,1-1s1,0.448,1,1C25.991,37.534,25.543,37.982,24.991,37.982z M24.991,31.982
	c-0.552,0-1-0.448-1-1c0-0.552,0.448-1,1-1s1,0.448,1,1C25.991,31.534,25.543,31.982,24.991,31.982z M24.991,25.982
	c-0.552,0-1-0.448-1-1c0-0.552,0.448-1,1-1s1,0.448,1,1C25.991,25.534,25.543,25.982,24.991,25.982z M24.991,19.982
	c-0.552,0-1-0.448-1-1c0-0.552,0.448-1,1-1s1,0.448,1,1C25.991,19.534,25.543,19.982,24.991,19.982z M24.991,13.982
	c-0.552,0-1-0.448-1-1c0-0.552,0.448-1,1-1s1,0.448,1,1C25.991,13.534,25.543,13.982,24.991,13.982z M24.991,7.982
	c-0.552,0-1-0.448-1-1c0-0.552,0.448-1,1-1s1,0.448,1,1C25.991,7.534,25.543,7.982,24.991,7.982z M27.991,52.982
	c-0.552,0-1-0.448-1-1c0-0.552,0.448-1,1-1s1,0.448,1,1C28.991,52.534,28.543,52.982,27.991,52.982z M27.991,46.982
	c-0.552,0-1-0.448-1-1c0-0.552,0.448-1,1-1s1,0.448,1,1C28.991,46.534,28.543,46.982,27.991,46.982z M27.991,40.982
	c-0.552,0-1-0.448-1-1c0-0.552,0.448-1,1-1s1,0.448,1,1C28.991,40.534,28.543,40.982,27.991,40.982z M27.991,34.982
	c-0.552,0-1-0.448-1-1c0-0.552,0.448-1,1-1s1,0.448,1,1C28.991,34.534,28.543,34.982,27.991,34.982z M27.991,28.982
	c-0.552,0-1-0.448-1-1c0-0.552,0.448-1,1-1s1,0.448,1,1C28.991,28.534,28.543,28.982,27.991,28.982z M27.991,22.982
	c-0.552,0-1-0.448-1-1c0-0.552,0.448-1,1-1s1,0.448,1,1C28.991,22.534,28.543,22.982,27.991,22.982z M27.991,16.982
	c-0.552,0-1-0.448-1-1c0-0.552,0.448-1,1-1s1,0.448,1,1C28.991,16.534,28.543,16.982,27.991,16.982z M27.991,10.982
	c-0.552,0-1-0.448-1-1c0-0.552,0.448-1,1-1s1,0.448,1,1C28.991,10.534,28.543,10.982,27.991,10.982z M27.991,4.982
	c-0.552,0-1-0.448-1-1c0-0.552,0.448-1,1-1s1,0.448,1,1C28.991,4.534,28.543,4.982,27.991,4.982z M30.991,55.982
	c-0.552,0-1-0.448-1-1c0-0.552,0.448-1,1-1s1,0.448,1,1C31.991,55.534,31.543,55.982,30.991,55.982z M30.991,49.982
	c-0.552,0-1-0.448-1-1c0-0.552,0.448-1,1-1s1,0.448,1,1C31.991,49.534,31.543,49.982,30.991,49.982z M30.991,43.982
	c-0.552,0-1-0.448-1-1c0-0.552,0.448-1,1-1s1,0.448,1,1C31.991,43.534,31.543,43.982,30.991,43.982z M30.991,37.982
	c-0.552,0-1-0.448-1-1c0-0.552,0.448-1,1-1s1,0.448,1,1C31.991,37.534,31.543,37.982,30.991,37.982z M30.991,31.982
	c-0.552,0-1-0.448-1-1c0-0.552,0.448-1,1-1s1,0.448,1,1C31.991,31.534,31.543,31.982,30.991,31.982z M30.991,25.982
	c-0.552,0-1-0.448-1-1c0-0.552,0.448-1,1-1s1,0.448,1,1C31.991,25.534,31.543,25.982,30.991,25.982z M30.991,19.982
	c-0.552,0-1-0.448-1-1c0-0.552,0.448-1,1-1s1,0.448,1,1C31.991,19.534,31.543,19.982,30.991,19.982z M30.991,13.982
	c-0.552,0-1-0.448-1-1c0-0.552,0.448-1,1-1s1,0.448,1,1C31.991,13.534,31.543,13.982,30.991,13.982z M30.991,7.982
	c-0.552,0-1-0.448-1-1c0-0.552,0.448-1,1-1s1,0.448,1,1C31.991,7.534,31.543,7.982,30.991,7.982z"/>
<g>
</g>
<g>
</g>
<g>
</g>
<g>
</g>
<g>
</g>
<g>
</g>
<g>
</g>
<g>
</g>
<g>
</g>
<g>
</g>
<g>
</g>
<g>
</g>
<g>
</g>
<g>
</g>
<g>
</g>
</svg>
